<?xml version="1.0" encoding="utf-8"?>
<!-- Generator: Adobe Illustrator 17.0.0, SVG Export Plug-In . SVG Version: 6.00 Build 0)  -->
<!DOCTYPE svg PUBLIC "-//W3C//DTD SVG 1.1//EN" "http://www.w3.org/Graphics/SVG/1.1/DTD/svg11.dtd">
<svg version="1.1" id="Laag_1" xmlns="http://www.w3.org/2000/svg" xmlns:xlink="http://www.w3.org/1999/xlink" x="0px" y="0px"
	 width="16px" height="16px" viewBox="0 0 16 16" enable-background="new 0 0 16 16" xml:space="preserve">
<path fill="#FFFFFF" stroke="#FFFFFF" stroke-width="0.25" stroke-miterlimit="10" d="M9.327,14.333
	c-0.259,0.439-0.505,0.857-0.766,1.3c-0.114-0.303-0.218-0.576-0.321-0.85c-0.009-0.001-0.017-0.002-0.026-0.003
	c-0.131,0.248-0.263,0.497-0.398,0.754c-0.198-0.233-0.392-0.46-0.601-0.705c-0.13,0.319-0.249,0.612-0.378,0.929
	c-0.265-0.431-0.426-0.901-0.812-1.251c-0.109,0.224-0.211,0.431-0.319,0.654c-0.026-0.035-0.043-0.055-0.056-0.077
	c-0.054-0.09-0.108-0.179-0.159-0.27c-0.141-0.253-0.35-0.432-0.582-0.602c-0.408-0.299-0.803-0.617-1.182-0.951
	c-0.521-0.458-1.021-0.939-1.531-1.41c-0.013-0.012-0.027-0.023-0.045-0.038c-0.042,0.071-0.08,0.137-0.121,0.201
	c-0.073,0.115-0.179,0.17-0.313,0.149c-0.457-0.073-0.822-0.293-1.064-0.696c-0.112-0.187-0.132-0.396-0.076-0.607
	c0.062-0.238,0.205-0.396,0.463-0.436c-0.013-0.028-0.021-0.05-0.033-0.07C0.32,9.214,0.056,7.982,0.178,6.661
	c0.125-1.35,0.545-2.599,1.295-3.727C2.217,1.814,3.2,0.993,4.477,0.552C5.202,0.301,5.953,0.188,6.716,0.18
	c2.164-0.023,4.192,0.496,6.071,1.581c0.712,0.411,1.347,0.92,1.852,1.581c0.558,0.731,0.879,1.559,1.004,2.468
	c0.144,1.041,0.038,2.065-0.21,3.078c-0.09,0.367-0.209,0.727-0.315,1.09c-0.009,0.032-0.02,0.063-0.036,0.111
	c0.086,0,0.159-0.006,0.231,0.001c0.335,0.031,0.505,0.18,0.569,0.513c0.078,0.406,0.005,0.777-0.311,1.064
	c-0.228,0.206-0.519,0.25-0.815,0.26c-0.186,0.007-0.361-0.025-0.499-0.178c-0.022,0.024-0.041,0.043-0.057,0.063
	c-0.243,0.303-0.526,0.564-0.864,0.751c-0.386,0.213-0.704,0.498-0.975,0.842c-0.117,0.149-0.245,0.289-0.368,0.433
	c-0.007-0.003-0.014-0.006-0.021-0.01c0.029-0.119,0.057-0.239,0.086-0.358c-0.09,0.122-0.219,0.12-0.343,0.112
	c-0.346-0.022-0.618,0.112-0.836,0.377c-0.174,0.211-0.354,0.417-0.532,0.624c-0.025,0.029-0.053,0.057-0.079,0.085
	c-0.009-0.003-0.018-0.007-0.027-0.01c0.024-0.174,0.049-0.347,0.073-0.521c-0.007-0.005-0.015-0.01-0.022-0.014
	C9.977,14.377,9.75,14.71,9.49,15.055C9.433,14.803,9.383,14.579,9.327,14.333z M15.029,10.267
	c-0.029-0.051-0.062-0.091-0.076-0.137c-0.014-0.045-0.026-0.101-0.014-0.144c0.356-1.195,0.546-2.412,0.482-3.662
	c-0.034-0.657-0.172-1.293-0.434-1.898c-0.42-0.969-1.107-1.704-1.98-2.273c-0.956-0.622-2-1.038-3.098-1.323
	c-1.392-0.361-2.8-0.506-4.233-0.307c-1.662,0.231-2.981,1.03-3.948,2.408C1.007,3.958,0.59,5.105,0.426,6.347
	C0.315,7.19,0.357,8.024,0.593,8.844c0.165,0.572,0.415,1.105,0.74,1.602c0.037,0.056,0.041,0.094-0.009,0.141
	c-0.041,0.039-0.074,0.085-0.114,0.134c0.083,0.036,0.154,0.067,0.226,0.098c-0.114,0.125-0.22,0.242-0.329,0.361
	c0.146,0.008,0.298,0.016,0.449,0.024c-0.004,0.007-0.007,0.014-0.011,0.021c0.027,0.025,0.058,0.048,0.081,0.076
	c0.019,0.023,0.04,0.052,0.041,0.08c0.005,0.107,0.002,0.214,0.002,0.332c0.184-0.028,0.349-0.057,0.516-0.076
	c0.041-0.004,0.098,0.014,0.126,0.043c0.802,0.835,1.658,1.607,2.604,2.275c0.253,0.179,0.459,0.395,0.625,0.655
	c0.049,0.077,0.103,0.15,0.166,0.24c0.107-0.162,0.203-0.308,0.316-0.479c0.161,0.178,0.317,0.331,0.448,0.503
	c0.131,0.171,0.236,0.361,0.368,0.567c0.094-0.3,0.18-0.577,0.277-0.885c0.237,0.231,0.462,0.449,0.693,0.674
	c0.144-0.301,0.313-0.587,0.536-0.846c0.014,0.278,0.072,0.539,0.223,0.787c0.329-0.395,0.596-0.816,0.863-1.244
	c0.034,0.233,0.049,0.465,0.162,0.696c0.261-0.343,0.584-0.594,0.945-0.811c-0.026,0.151-0.052,0.302-0.078,0.453
	c0.109-0.117,0.205-0.236,0.294-0.36c0.241-0.337,0.551-0.528,0.977-0.484c0.006,0.001,0.012-0.001,0.018,0
	c0.142,0.008,0.24-0.057,0.302-0.183c0.043-0.087,0.086-0.173,0.136-0.275c0,0.158,0,0.299,0,0.457
	c0.033-0.042,0.053-0.069,0.074-0.096c0.187-0.245,0.378-0.485,0.636-0.661c0.462-0.315,0.86-0.702,1.212-1.137
	c0.045-0.055,0.088-0.073,0.156-0.066c0.139,0.016,0.279,0.024,0.433,0.037c0-0.166,0-0.322,0-0.481c0.049,0,0.085,0,0.125,0
	c-0.005-0.036-0.009-0.068-0.014-0.107c0.156-0.031,0.308-0.06,0.485-0.095c-0.147-0.085-0.269-0.155-0.412-0.237
	c0.096-0.019,0.165-0.033,0.246-0.049c-0.059-0.083-0.108-0.152-0.16-0.225C14.988,10.291,15.006,10.281,15.029,10.267z"/>
<path fill="#FFFFFF" stroke="#FFFFFF" stroke-width="0.25" stroke-miterlimit="10" d="M6.842,11.916c0-0.144,0.009-0.29-0.003-0.433
	c-0.012-0.148-0.077-0.215-0.223-0.241c-0.114-0.02-0.231-0.029-0.347-0.032c-0.539-0.013-0.899-0.281-1.098-0.776
	C5.052,10.138,5.027,9.83,5.097,9.518c0.092-0.408,0.344-0.663,0.747-0.766c0.3-0.077,0.6-0.073,0.9,0.003
	c0.314,0.079,0.557,0.263,0.749,0.519C7.565,9.37,7.628,9.472,7.698,9.569C7.739,9.627,7.78,9.685,7.829,9.735
	c0.089,0.09,0.169,0.085,0.251-0.01c0.03-0.035,0.056-0.074,0.079-0.113c0.043-0.071,0.082-0.144,0.124-0.216
	c0.39-0.671,1.247-0.911,1.934-0.544c0.216,0.116,0.37,0.288,0.441,0.521c0.156,0.509,0.083,0.988-0.231,1.419
	c-0.171,0.235-0.411,0.365-0.7,0.396c-0.192,0.021-0.385,0.028-0.576,0.055c-0.218,0.03-0.3,0.116-0.319,0.337
	c-0.013,0.15-0.008,0.301-0.004,0.452c0.006,0.281-0.028,0.554-0.156,0.807c-0.038,0.076-0.087,0.15-0.142,0.214
	c-0.112,0.13-0.233,0.146-0.375,0.051c-0.076-0.051-0.145-0.114-0.21-0.178c-0.064-0.063-0.118-0.061-0.182-0.002
	c-0.063,0.058-0.128,0.116-0.199,0.163c-0.173,0.117-0.32,0.095-0.452-0.069c-0.18-0.224-0.254-0.488-0.273-0.77
	c-0.007-0.11-0.001-0.222-0.001-0.332C6.838,11.916,6.84,11.916,6.842,11.916z M9.242,10.757c0.238,0.009,0.372-0.078,0.458-0.221
	c0.093-0.157,0.168-0.327,0.239-0.496c0.046-0.109,0.02-0.142-0.097-0.142C9.624,9.9,9.407,9.905,9.19,9.916
	c-0.124,0.006-0.248,0.036-0.336,0.129c-0.103,0.108-0.194,0.228-0.283,0.348c-0.014,0.019-0.001,0.084,0.018,0.097
	C8.809,10.627,9.038,10.742,9.242,10.757z M6.352,9.978c0,0.003,0,0.006,0,0.01c-0.101,0-0.202-0.001-0.303,0
	c-0.069,0.001-0.104,0.032-0.08,0.106c0.064,0.207,0.144,0.406,0.283,0.575c0.112,0.136,0.254,0.195,0.43,0.173
	c0.237-0.03,0.441-0.14,0.643-0.257c0.052-0.03,0.054-0.071,0.021-0.116c-0.064-0.086-0.128-0.173-0.195-0.256
	c-0.104-0.128-0.24-0.197-0.404-0.209C6.614,9.994,6.483,9.986,6.352,9.978z"/>
</svg>
