<?xml version="1.0" encoding="utf-8"?>
<!-- Generator: Adobe Illustrator 17.0.0, SVG Export Plug-In . SVG Version: 6.00 Build 0)  -->
<!DOCTYPE svg PUBLIC "-//W3C//DTD SVG 1.1//EN" "http://www.w3.org/Graphics/SVG/1.1/DTD/svg11.dtd">
<svg version="1.1" id="Laag_1" xmlns="http://www.w3.org/2000/svg" xmlns:xlink="http://www.w3.org/1999/xlink" x="0px" y="0px"
	 width="24px" height="24px" viewBox="-4 -4 24 24" enable-background="new -4 -4 24 24" xml:space="preserve">
<path stroke="#000000" stroke-width="0.25" stroke-miterlimit="10" d="M6.422-3.367c0,0-3.57-0.261-5.028,0.717
	s-4.059,4.049-4.465,5.281s-0.984,5.547-0.461,6.88s1.23,2.619,1.23,2.619l-0.676,0.752l0.998,0.788h0.915l0.729,0.604l3.85,3.288
	l0.979,0.789l0.398-0.344l0.117-0.232l0.926,1.467l0.181,0.324l0.44-1.442l1.116,0.799l0.836-0.993l0.302,1.6l1.154-2.318
	l0.404,0.796l1.428-1.222l-0.287,1.161l0.74-1.173l0.74-0.513l1.3-0.066l1.109-0.87l1.66-1.821l1.76,0.081v-2.156l-0.369-0.408
	c0,0,0.84-1.935,0.942-2.563c0.102-0.628-0.143-3.756-0.506-4.784s-1.672-3.737-2.68-4.39c-1.008-0.653-4.676-2.018-6.341-2.284
	S6.422-3.367,6.422-3.367z"/>
<path stroke="#000000" stroke-width="0.25" stroke-miterlimit="10" d="M9.966,17.571c-0.391,0.661-0.763,1.291-1.158,1.958
	c-0.172-0.456-0.329-0.868-0.485-1.28c-0.014-0.002-0.026-0.003-0.039-0.005c-0.198,0.374-0.398,0.749-0.602,1.136
	c-0.299-0.351-0.592-0.693-0.908-1.062c-0.196,0.481-0.376,0.922-0.571,1.399c-0.401-0.649-0.644-1.357-1.227-1.885
	c-0.165,0.337-0.319,0.649-0.482,0.985c-0.039-0.053-0.065-0.083-0.085-0.116c-0.082-0.136-0.163-0.27-0.24-0.407
	c-0.213-0.381-0.529-0.651-0.88-0.907c-0.617-0.45-1.214-0.929-1.787-1.433c-0.787-0.69-1.543-1.415-2.314-2.124
	c-0.02-0.018-0.041-0.035-0.068-0.057c-0.063,0.107-0.121,0.206-0.183,0.303c-0.11,0.173-0.271,0.256-0.473,0.224
	c-0.691-0.11-1.242-0.441-1.608-1.048c-0.169-0.282-0.2-0.597-0.115-0.914c0.094-0.359,0.31-0.597,0.7-0.657
	c-0.02-0.042-0.032-0.075-0.05-0.105C-3.647,9.86-4.046,8.004-3.862,6.014C-3.673,3.98-3.038,2.099-1.905,0.4
	c1.125-1.687,2.61-2.924,4.54-3.588c1.096-0.378,2.231-0.548,3.384-0.56c3.271-0.035,6.336,0.747,9.176,2.382
	c1.076,0.619,2.036,1.386,2.799,2.382c0.843,1.101,1.329,2.349,1.517,3.718C19.73,6.3,19.57,7.843,19.195,9.369
	c-0.136,0.553-0.316,1.095-0.476,1.642c-0.014,0.048-0.03,0.095-0.054,0.167c0.13,0,0.24-0.009,0.349,0.002
	c0.506,0.047,0.763,0.271,0.86,0.773c0.118,0.612,0.008,1.17-0.47,1.603c-0.345,0.31-0.784,0.377-1.232,0.392
	c-0.281,0.011-0.546-0.038-0.754-0.268c-0.033,0.036-0.062,0.065-0.086,0.095c-0.367,0.456-0.795,0.85-1.306,1.131
	c-0.583,0.321-1.064,0.75-1.474,1.268c-0.177,0.224-0.37,0.435-0.556,0.652c-0.011-0.005-0.021-0.009-0.032-0.015
	c0.044-0.179,0.086-0.36,0.13-0.539c-0.136,0.184-0.331,0.181-0.518,0.169c-0.523-0.033-0.934,0.169-1.264,0.568
	c-0.263,0.318-0.535,0.628-0.804,0.94c-0.038,0.044-0.08,0.086-0.119,0.128c-0.014-0.005-0.027-0.011-0.041-0.015
	c0.036-0.262,0.074-0.523,0.11-0.785c-0.011-0.008-0.023-0.015-0.033-0.021c-0.476,0.383-0.819,0.884-1.212,1.404
	C10.126,18.279,10.051,17.942,9.966,17.571z M18.585,11.446c-0.044-0.077-0.094-0.137-0.115-0.206
	c-0.021-0.068-0.039-0.152-0.021-0.217c0.538-1.8,0.825-3.634,0.729-5.517c-0.051-0.99-0.26-1.948-0.656-2.859
	c-0.635-1.46-1.673-2.567-2.993-3.424c-1.445-0.937-3.023-1.564-4.682-1.993C8.742-3.314,6.614-3.532,4.448-3.232
	C1.936-2.884-0.058-1.681-1.519,0.395c-1.09,1.547-1.72,3.275-1.968,5.146c-0.168,1.27-0.104,2.526,0.252,3.762
	c0.249,0.862,0.627,1.665,1.118,2.413c0.056,0.084,0.062,0.142-0.014,0.212c-0.062,0.059-0.112,0.128-0.172,0.202
	c0.125,0.054,0.233,0.101,0.342,0.148c-0.172,0.188-0.333,0.365-0.497,0.544c0.221,0.012,0.45,0.024,0.679,0.036
	c-0.006,0.011-0.011,0.021-0.017,0.032c0.041,0.038,0.088,0.072,0.122,0.114c0.029,0.035,0.06,0.078,0.062,0.121
	c0.008,0.161,0.003,0.322,0.003,0.5c0.278-0.042,0.527-0.086,0.78-0.114c0.062-0.006,0.148,0.021,0.19,0.065
	c1.212,1.258,2.506,2.421,3.936,3.427c0.382,0.27,0.694,0.595,0.945,0.987c0.074,0.116,0.156,0.226,0.251,0.362
	c0.162-0.244,0.307-0.464,0.478-0.722c0.243,0.268,0.479,0.499,0.677,0.758c0.198,0.258,0.357,0.544,0.556,0.854
	c0.142-0.452,0.272-0.869,0.419-1.333c0.358,0.348,0.698,0.676,1.047,1.015c0.218-0.453,0.473-0.884,0.81-1.274
	c0.021,0.419,0.109,0.812,0.337,1.186c0.497-0.595,0.901-1.229,1.304-1.874c0.051,0.351,0.074,0.7,0.245,1.048
	c0.394-0.517,0.883-0.895,1.428-1.222c-0.039,0.227-0.079,0.455-0.118,0.682c0.165-0.176,0.31-0.356,0.444-0.542
	c0.364-0.508,0.833-0.795,1.477-0.729c0.009,0.002,0.018-0.002,0.027,0c0.215,0.012,0.363-0.086,0.456-0.276
	c0.065-0.131,0.13-0.261,0.206-0.414c0,0.238,0,0.45,0,0.688c0.05-0.063,0.08-0.104,0.112-0.145
	c0.283-0.369,0.571-0.731,0.961-0.996c0.698-0.475,1.3-1.058,1.832-1.713c0.068-0.083,0.133-0.11,0.236-0.099
	c0.21,0.024,0.422,0.036,0.654,0.056c0-0.25,0-0.485,0-0.725c0.074,0,0.128,0,0.189,0c-0.008-0.054-0.014-0.102-0.021-0.161
	c0.236-0.047,0.466-0.09,0.733-0.143c-0.222-0.128-0.407-0.233-0.623-0.357c0.145-0.029,0.249-0.05,0.372-0.074
	c-0.089-0.125-0.163-0.229-0.242-0.339C18.523,11.482,18.55,11.467,18.585,11.446z"/>
<path fill="#FFFFFF" stroke="#000000" stroke-width="0.25" stroke-miterlimit="10" d="M6.21,13.93c0-0.217,0.014-0.437-0.005-0.652
	c-0.018-0.223-0.116-0.324-0.337-0.363c-0.172-0.03-0.349-0.044-0.524-0.048c-0.815-0.02-1.359-0.423-1.66-1.169
	c-0.18-0.446-0.218-0.91-0.112-1.38c0.139-0.615,0.52-0.999,1.129-1.154c0.453-0.116,0.907-0.11,1.36,0.005
	C6.537,9.288,6.904,9.565,7.194,9.95c0.109,0.145,0.204,0.298,0.31,0.444c0.062,0.087,0.124,0.175,0.198,0.25
	c0.135,0.136,0.255,0.128,0.379-0.015c0.045-0.053,0.085-0.111,0.119-0.17c0.065-0.107,0.124-0.217,0.187-0.325
	c0.589-1.011,1.885-1.372,2.923-0.819c0.326,0.175,0.559,0.434,0.667,0.785c0.236,0.767,0.125,1.488-0.349,2.138
	c-0.258,0.354-0.621,0.55-1.058,0.597c-0.29,0.032-0.582,0.042-0.871,0.083c-0.329,0.045-0.453,0.175-0.482,0.508
	c-0.02,0.226-0.012,0.453-0.006,0.681c0.009,0.423-0.042,0.835-0.236,1.216c-0.057,0.114-0.131,0.226-0.215,0.322
	c-0.169,0.196-0.352,0.22-0.567,0.077c-0.115-0.077-0.219-0.172-0.317-0.268c-0.097-0.095-0.178-0.092-0.275-0.003
	c-0.095,0.087-0.193,0.175-0.301,0.246c-0.261,0.176-0.484,0.143-0.683-0.104c-0.272-0.337-0.384-0.735-0.413-1.16
	c-0.011-0.166-0.002-0.334-0.002-0.5C6.204,13.93,6.207,13.93,6.21,13.93z M9.838,12.184c0.36,0.014,0.562-0.118,0.692-0.333
	c0.141-0.237,0.254-0.493,0.361-0.747c0.07-0.164,0.03-0.214-0.147-0.214c-0.329,0.003-0.657,0.011-0.985,0.027
	c-0.187,0.009-0.375,0.054-0.508,0.194c-0.156,0.163-0.293,0.343-0.428,0.524c-0.021,0.029-0.002,0.127,0.027,0.146
	C9.183,11.989,9.529,12.162,9.838,12.184z M5.47,11.011c0,0.005,0,0.009,0,0.015c-0.153,0-0.305-0.002-0.458,0
	c-0.104,0.002-0.157,0.048-0.121,0.16c0.097,0.312,0.218,0.612,0.428,0.866c0.169,0.205,0.384,0.294,0.65,0.261
	c0.358-0.045,0.667-0.211,0.972-0.387c0.079-0.045,0.082-0.107,0.032-0.175c-0.097-0.13-0.193-0.261-0.295-0.386
	c-0.157-0.193-0.363-0.297-0.611-0.315C5.866,11.035,5.668,11.023,5.47,11.011z"/>
</svg>
